<?xml version="1.0" encoding="utf-8"?>
<!-- Generator: Adobe Illustrator 23.0.4, SVG Export Plug-In . SVG Version: 6.00 Build 0)  -->
<svg version="1.1" id="Ebene_1" xmlns="http://www.w3.org/2000/svg" xmlns:xlink="http://www.w3.org/1999/xlink" x="0px" y="0px"
	 viewBox="0 0 200 254" style="enable-background:new 0 0 200 254;" xml:space="preserve">
<g>
	<path d="M180.6,245.8c-3.1,3.1-7,3.2-7.8,3.3l-2.5-2.5l11.2-11.2l2.5,2.5C184.1,238.6,183.9,242.6,180.6,245.8L180.6,245.8z
		 M112.3,188.5l11.2-11.2l56.4,56.4l-11.2,11.2L112.3,188.5L112.3,188.5z M107,172l15.4,4.1l-11.2,11.2L107,172L107,172z M27,153
		h146v16H27V153L27,153z M27,127h146v16H27V127L27,127z M27,101h146v16H27V101L27,101z M27,75h146v16H27V75L27,75z M27,49h146v16H27
		V49L27,49z M27,23h146v16H27V23L27,23z M0,0v254h200V0H0L0,0z"/>
</g>
</svg>
